<svg id="visual" viewBox="0 0 960 300" width="960" height="300" xmlns="http://www.w3.org/2000/svg" xmlns:xlink="http://www.w3.org/1999/xlink" version="1.1"><rect x="0" y="0" width="960" height="300" fill="#8087a4"></rect><g transform="translate(444.43423704009 140.67144679347626)"><path d="M79.4 -118.9C106.5 -121.9 134.4 -107.8 124.8 -85.2C115.3 -62.5 68.1 -31.3 56.4 -6.8C44.6 17.7 68.2 35.3 78 58.4C87.9 81.5 83.9 110 68.6 125.7C53.3 141.4 26.7 144.2 13.3 121.1C0 98 0 49 -13.9 32.5C-27.7 16 -55.4 32 -55.6 32C-55.8 32 -28.4 16 -18.9 5.5C-9.3 -5 -17.7 -10 -28.5 -29.1C-39.3 -48.1 -52.7 -81.2 -48.3 -91.4C-44 -101.5 -22 -88.8 2.1 -92.4C26.2 -96 52.3 -116 79.4 -118.9" fill="#c36622"></path></g></svg>