<svg id="visual" viewBox="0 0 960 300" width="960" height="300" xmlns="http://www.w3.org/2000/svg" xmlns:xlink="http://www.w3.org/1999/xlink" version="1.1"><rect x="0" y="0" width="960" height="300" fill="#8087a4"></rect><g transform="translate(469.368216290808 168.2879513147409)"><path d="M62.1 -110.1C65.4 -105.5 42.9 -58.6 38.5 -33.2C34.2 -7.8 48.1 -3.9 71.8 13.7C95.5 31.2 128.9 62.5 124 71.9C119.1 81.3 75.8 68.8 48.7 59.5C21.7 50.2 10.8 44.1 2.7 39.5C-5.5 34.9 -11 31.7 -30.8 36.8C-50.5 41.9 -84.6 55.2 -97 50.4C-109.4 45.7 -100.2 22.8 -95.6 2.7C-91 -17.5 -91 -35 -89.7 -59.1C-88.5 -83.2 -86 -113.9 -70.8 -111.7C-55.7 -109.4 -27.8 -74.2 0.7 -75.5C29.3 -76.8 58.7 -114.6 62.1 -110.1" fill="#c36622"></path></g></svg>