<svg id="visual" viewBox="0 0 960 300" width="960" height="300" xmlns="http://www.w3.org/2000/svg" xmlns:xlink="http://www.w3.org/1999/xlink" version="1.1"><rect x="0" y="0" width="960" height="300" fill="#0c5f9f"></rect><path d="M0 176L10.7 176.7C21.3 177.3 42.7 178.7 64 181.7C85.3 184.7 106.7 189.3 128 190.8C149.3 192.3 170.7 190.7 192 190.7C213.3 190.7 234.7 192.3 256 191.3C277.3 190.3 298.7 186.7 320 182C341.3 177.3 362.7 171.7 384 172.8C405.3 174 426.7 182 448 186.2C469.3 190.3 490.7 190.7 512 189.5C533.3 188.3 554.7 185.7 576 186.2C597.3 186.7 618.7 190.3 640 189.2C661.3 188 682.7 182 704 181.5C725.3 181 746.7 186 768 185.2C789.3 184.3 810.7 177.7 832 173.2C853.3 168.7 874.7 166.3 896 169.2C917.3 172 938.7 180 949.3 184L960 188L960 301L949.3 301C938.7 301 917.3 301 896 301C874.7 301 853.3 301 832 301C810.7 301 789.3 301 768 301C746.7 301 725.3 301 704 301C682.7 301 661.3 301 640 301C618.7 301 597.3 301 576 301C554.7 301 533.3 301 512 301C490.7 301 469.3 301 448 301C426.7 301 405.3 301 384 301C362.7 301 341.3 301 320 301C298.7 301 277.3 301 256 301C234.7 301 213.3 301 192 301C170.7 301 149.3 301 128 301C106.7 301 85.3 301 64 301C42.7 301 21.3 301 10.7 301L0 301Z" fill="#240612"></path><path d="M0 188L10.7 187.2C21.3 186.3 42.7 184.7 64 187.3C85.3 190 106.7 197 128 199.8C149.3 202.7 170.7 201.3 192 199.7C213.3 198 234.7 196 256 196C277.3 196 298.7 198 320 197.3C341.3 196.7 362.7 193.3 384 192.3C405.3 191.3 426.7 192.7 448 194.8C469.3 197 490.7 200 512 201.2C533.3 202.3 554.7 201.7 576 198.5C597.3 195.3 618.7 189.7 640 188.8C661.3 188 682.7 192 704 194.7C725.3 197.3 746.7 198.7 768 199.7C789.3 200.7 810.7 201.3 832 200.3C853.3 199.3 874.7 196.7 896 192C917.3 187.3 938.7 180.7 949.3 177.3L960 174L960 301L949.3 301C938.7 301 917.3 301 896 301C874.7 301 853.3 301 832 301C810.7 301 789.3 301 768 301C746.7 301 725.3 301 704 301C682.7 301 661.3 301 640 301C618.7 301 597.3 301 576 301C554.7 301 533.3 301 512 301C490.7 301 469.3 301 448 301C426.7 301 405.3 301 384 301C362.7 301 341.3 301 320 301C298.7 301 277.3 301 256 301C234.7 301 213.3 301 192 301C170.7 301 149.3 301 128 301C106.7 301 85.3 301 64 301C42.7 301 21.3 301 10.7 301L0 301Z" fill="#320a19"></path><path d="M0 202L10.7 202.2C21.3 202.3 42.7 202.7 64 203C85.3 203.3 106.7 203.7 128 204.7C149.3 205.7 170.7 207.3 192 205.8C213.3 204.3 234.7 199.7 256 199C277.3 198.3 298.7 201.7 320 202.8C341.3 204 362.7 203 384 201.3C405.3 199.7 426.7 197.3 448 195.7C469.3 194 490.7 193 512 192.2C533.3 191.3 554.7 190.7 576 192.5C597.3 194.3 618.7 198.7 640 200.7C661.3 202.7 682.7 202.3 704 199C725.3 195.7 746.7 189.3 768 189.8C789.3 190.3 810.7 197.7 832 199.5C853.3 201.3 874.7 197.7 896 198.2C917.3 198.7 938.7 203.3 949.3 205.7L960 208L960 301L949.3 301C938.7 301 917.3 301 896 301C874.7 301 853.3 301 832 301C810.7 301 789.3 301 768 301C746.7 301 725.3 301 704 301C682.7 301 661.3 301 640 301C618.7 301 597.3 301 576 301C554.7 301 533.3 301 512 301C490.7 301 469.3 301 448 301C426.7 301 405.3 301 384 301C362.7 301 341.3 301 320 301C298.7 301 277.3 301 256 301C234.7 301 213.3 301 192 301C170.7 301 149.3 301 128 301C106.7 301 85.3 301 64 301C42.7 301 21.3 301 10.7 301L0 301Z" fill="#420c1e"></path><path d="M0 206L10.7 208.5C21.3 211 42.7 216 64 216C85.3 216 106.7 211 128 206.7C149.3 202.3 170.7 198.7 192 200.7C213.3 202.7 234.7 210.3 256 213C277.3 215.7 298.7 213.3 320 213.7C341.3 214 362.7 217 384 214.7C405.3 212.3 426.7 204.7 448 201.3C469.3 198 490.7 199 512 198.5C533.3 198 554.7 196 576 195.7C597.3 195.3 618.7 196.7 640 198.8C661.3 201 682.7 204 704 206.7C725.3 209.3 746.7 211.7 768 211.8C789.3 212 810.7 210 832 210.5C853.3 211 874.7 214 896 212C917.3 210 938.7 203 949.3 199.5L960 196L960 301L949.3 301C938.7 301 917.3 301 896 301C874.7 301 853.3 301 832 301C810.7 301 789.3 301 768 301C746.7 301 725.3 301 704 301C682.7 301 661.3 301 640 301C618.7 301 597.3 301 576 301C554.7 301 533.3 301 512 301C490.7 301 469.3 301 448 301C426.7 301 405.3 301 384 301C362.7 301 341.3 301 320 301C298.7 301 277.3 301 256 301C234.7 301 213.3 301 192 301C170.7 301 149.3 301 128 301C106.7 301 85.3 301 64 301C42.7 301 21.3 301 10.7 301L0 301Z" fill="#530c23"></path><path d="M0 217L10.7 218.3C21.3 219.7 42.7 222.3 64 222.5C85.3 222.7 106.7 220.3 128 217.2C149.3 214 170.7 210 192 208C213.3 206 234.7 206 256 206.8C277.3 207.7 298.7 209.3 320 212C341.3 214.7 362.7 218.3 384 219.8C405.3 221.3 426.7 220.7 448 219.7C469.3 218.7 490.7 217.3 512 214.8C533.3 212.3 554.7 208.7 576 208.2C597.3 207.7 618.7 210.3 640 212.7C661.3 215 682.7 217 704 218C725.3 219 746.7 219 768 216.8C789.3 214.7 810.7 210.3 832 210.5C853.3 210.7 874.7 215.3 896 217C917.3 218.7 938.7 217.3 949.3 216.7L960 216L960 301L949.3 301C938.7 301 917.3 301 896 301C874.7 301 853.3 301 832 301C810.7 301 789.3 301 768 301C746.7 301 725.3 301 704 301C682.7 301 661.3 301 640 301C618.7 301 597.3 301 576 301C554.7 301 533.3 301 512 301C490.7 301 469.3 301 448 301C426.7 301 405.3 301 384 301C362.7 301 341.3 301 320 301C298.7 301 277.3 301 256 301C234.7 301 213.3 301 192 301C170.7 301 149.3 301 128 301C106.7 301 85.3 301 64 301C42.7 301 21.3 301 10.7 301L0 301Z" fill="#630d26"></path><path d="M0 233L10.7 231.7C21.3 230.3 42.7 227.7 64 228C85.3 228.3 106.7 231.7 128 232.7C149.3 233.7 170.7 232.3 192 233C213.3 233.7 234.7 236.3 256 234.5C277.3 232.7 298.7 226.3 320 225.5C341.3 224.7 362.7 229.3 384 228.7C405.3 228 426.7 222 448 221C469.3 220 490.7 224 512 227.5C533.3 231 554.7 234 576 231.8C597.3 229.7 618.7 222.3 640 221.7C661.3 221 682.7 227 704 229.2C725.3 231.3 746.7 229.7 768 229C789.3 228.3 810.7 228.7 832 229.8C853.3 231 874.7 233 896 233.8C917.3 234.7 938.7 234.3 949.3 234.2L960 234L960 301L949.3 301C938.7 301 917.3 301 896 301C874.7 301 853.3 301 832 301C810.7 301 789.3 301 768 301C746.7 301 725.3 301 704 301C682.7 301 661.3 301 640 301C618.7 301 597.3 301 576 301C554.7 301 533.3 301 512 301C490.7 301 469.3 301 448 301C426.7 301 405.3 301 384 301C362.7 301 341.3 301 320 301C298.7 301 277.3 301 256 301C234.7 301 213.3 301 192 301C170.7 301 149.3 301 128 301C106.7 301 85.3 301 64 301C42.7 301 21.3 301 10.7 301L0 301Z" fill="#740d29"></path><path d="M0 231L10.7 231.8C21.3 232.7 42.7 234.3 64 237C85.3 239.7 106.7 243.3 128 243.8C149.3 244.3 170.7 241.7 192 240.5C213.3 239.3 234.7 239.7 256 238.5C277.3 237.3 298.7 234.7 320 235C341.3 235.3 362.7 238.7 384 239.5C405.3 240.3 426.7 238.7 448 236.7C469.3 234.7 490.7 232.3 512 232.2C533.3 232 554.7 234 576 234C597.3 234 618.7 232 640 233.8C661.3 235.7 682.7 241.3 704 243.8C725.3 246.3 746.7 245.7 768 242.5C789.3 239.3 810.7 233.7 832 233.5C853.3 233.3 874.7 238.7 896 240C917.3 241.3 938.7 238.7 949.3 237.3L960 236L960 301L949.3 301C938.7 301 917.3 301 896 301C874.7 301 853.3 301 832 301C810.7 301 789.3 301 768 301C746.7 301 725.3 301 704 301C682.7 301 661.3 301 640 301C618.7 301 597.3 301 576 301C554.7 301 533.3 301 512 301C490.7 301 469.3 301 448 301C426.7 301 405.3 301 384 301C362.7 301 341.3 301 320 301C298.7 301 277.3 301 256 301C234.7 301 213.3 301 192 301C170.7 301 149.3 301 128 301C106.7 301 85.3 301 64 301C42.7 301 21.3 301 10.7 301L0 301Z" fill="#860d2b"></path><path d="M0 242L10.7 242.7C21.3 243.3 42.7 244.7 64 245.8C85.3 247 106.7 248 128 248.5C149.3 249 170.7 249 192 249.7C213.3 250.3 234.7 251.7 256 252.5C277.3 253.3 298.7 253.7 320 252.7C341.3 251.7 362.7 249.3 384 248.5C405.3 247.7 426.7 248.3 448 247.8C469.3 247.3 490.7 245.7 512 244C533.3 242.3 554.7 240.7 576 241.8C597.3 243 618.7 247 640 249.7C661.3 252.3 682.7 253.7 704 252.3C725.3 251 746.7 247 768 246.5C789.3 246 810.7 249 832 250.2C853.3 251.3 874.7 250.7 896 248.3C917.3 246 938.7 242 949.3 240L960 238L960 301L949.3 301C938.7 301 917.3 301 896 301C874.7 301 853.3 301 832 301C810.7 301 789.3 301 768 301C746.7 301 725.3 301 704 301C682.7 301 661.3 301 640 301C618.7 301 597.3 301 576 301C554.7 301 533.3 301 512 301C490.7 301 469.3 301 448 301C426.7 301 405.3 301 384 301C362.7 301 341.3 301 320 301C298.7 301 277.3 301 256 301C234.7 301 213.3 301 192 301C170.7 301 149.3 301 128 301C106.7 301 85.3 301 64 301C42.7 301 21.3 301 10.7 301L0 301Z" fill="#960f2b"></path><path d="M0 259L10.7 259.8C21.3 260.7 42.7 262.3 64 261C85.3 259.7 106.7 255.3 128 253.5C149.3 251.7 170.7 252.3 192 253C213.3 253.7 234.7 254.3 256 254.2C277.3 254 298.7 253 320 252.2C341.3 251.3 362.7 250.7 384 251.8C405.3 253 426.7 256 448 256.3C469.3 256.7 490.7 254.3 512 254.5C533.3 254.7 554.7 257.3 576 257.8C597.3 258.3 618.7 256.7 640 257.3C661.3 258 682.7 261 704 261C725.3 261 746.7 258 768 257.2C789.3 256.3 810.7 257.7 832 257.2C853.3 256.7 874.7 254.3 896 252.8C917.3 251.3 938.7 250.7 949.3 250.3L960 250L960 301L949.3 301C938.7 301 917.3 301 896 301C874.7 301 853.3 301 832 301C810.7 301 789.3 301 768 301C746.7 301 725.3 301 704 301C682.7 301 661.3 301 640 301C618.7 301 597.3 301 576 301C554.7 301 533.3 301 512 301C490.7 301 469.3 301 448 301C426.7 301 405.3 301 384 301C362.7 301 341.3 301 320 301C298.7 301 277.3 301 256 301C234.7 301 213.3 301 192 301C170.7 301 149.3 301 128 301C106.7 301 85.3 301 64 301C42.7 301 21.3 301 10.7 301L0 301Z" fill="#a7132a"></path><path d="M0 263L10.7 263.5C21.3 264 42.7 265 64 264.8C85.3 264.7 106.7 263.3 128 263.7C149.3 264 170.7 266 192 267.2C213.3 268.3 234.7 268.7 256 267.8C277.3 267 298.7 265 320 265.2C341.3 265.3 362.7 267.7 384 267.2C405.3 266.7 426.7 263.3 448 263C469.3 262.7 490.7 265.3 512 266.8C533.3 268.3 554.7 268.7 576 269.2C597.3 269.7 618.7 270.3 640 270.5C661.3 270.7 682.7 270.3 704 269.8C725.3 269.3 746.7 268.7 768 268.2C789.3 267.7 810.7 267.3 832 267.7C853.3 268 874.7 269 896 268.8C917.3 268.7 938.7 267.3 949.3 266.7L960 266L960 301L949.3 301C938.7 301 917.3 301 896 301C874.7 301 853.3 301 832 301C810.7 301 789.3 301 768 301C746.7 301 725.3 301 704 301C682.7 301 661.3 301 640 301C618.7 301 597.3 301 576 301C554.7 301 533.3 301 512 301C490.7 301 469.3 301 448 301C426.7 301 405.3 301 384 301C362.7 301 341.3 301 320 301C298.7 301 277.3 301 256 301C234.7 301 213.3 301 192 301C170.7 301 149.3 301 128 301C106.7 301 85.3 301 64 301C42.7 301 21.3 301 10.7 301L0 301Z" fill="#b81928"></path><path d="M0 274L10.7 274.2C21.3 274.3 42.7 274.7 64 275.2C85.3 275.7 106.7 276.3 128 275.5C149.3 274.7 170.7 272.3 192 271.7C213.3 271 234.7 272 256 273.7C277.3 275.3 298.7 277.7 320 278.8C341.3 280 362.7 280 384 279.5C405.3 279 426.7 278 448 277.7C469.3 277.3 490.7 277.7 512 276.8C533.3 276 554.7 274 576 274.2C597.3 274.3 618.7 276.7 640 278.2C661.3 279.7 682.7 280.3 704 279.5C725.3 278.7 746.7 276.3 768 276.2C789.3 276 810.7 278 832 277.8C853.3 277.7 874.7 275.3 896 274.3C917.3 273.3 938.7 273.7 949.3 273.8L960 274L960 301L949.3 301C938.7 301 917.3 301 896 301C874.7 301 853.3 301 832 301C810.7 301 789.3 301 768 301C746.7 301 725.3 301 704 301C682.7 301 661.3 301 640 301C618.7 301 597.3 301 576 301C554.7 301 533.3 301 512 301C490.7 301 469.3 301 448 301C426.7 301 405.3 301 384 301C362.7 301 341.3 301 320 301C298.7 301 277.3 301 256 301C234.7 301 213.3 301 192 301C170.7 301 149.3 301 128 301C106.7 301 85.3 301 64 301C42.7 301 21.3 301 10.7 301L0 301Z" fill="#c82124"></path><path d="M0 283L10.7 283.2C21.3 283.3 42.7 283.7 64 284C85.3 284.3 106.7 284.7 128 285C149.3 285.3 170.7 285.7 192 286C213.3 286.3 234.7 286.7 256 286.7C277.3 286.7 298.7 286.3 320 286C341.3 285.7 362.7 285.3 384 285.8C405.3 286.3 426.7 287.7 448 288.2C469.3 288.7 490.7 288.3 512 287.2C533.3 286 554.7 284 576 284C597.3 284 618.7 286 640 287.2C661.3 288.3 682.7 288.7 704 288.7C725.3 288.7 746.7 288.3 768 288.2C789.3 288 810.7 288 832 287.3C853.3 286.7 874.7 285.3 896 285.5C917.3 285.7 938.7 287.3 949.3 288.2L960 289L960 301L949.3 301C938.7 301 917.3 301 896 301C874.7 301 853.3 301 832 301C810.7 301 789.3 301 768 301C746.7 301 725.3 301 704 301C682.7 301 661.3 301 640 301C618.7 301 597.3 301 576 301C554.7 301 533.3 301 512 301C490.7 301 469.3 301 448 301C426.7 301 405.3 301 384 301C362.7 301 341.3 301 320 301C298.7 301 277.3 301 256 301C234.7 301 213.3 301 192 301C170.7 301 149.3 301 128 301C106.7 301 85.3 301 64 301C42.7 301 21.3 301 10.7 301L0 301Z" fill="#d72a1e"></path></svg>